<svg width="36" height="41" viewBox="0 0 36 41" fill="none" xmlns="http://www.w3.org/2000/svg">
<path d="M8.01992 22.3196L7.03596 26.3307C7.01013 26.4449 6.9029 26.517 6.78771 26.503C6.35082 26.4469 5.31816 26.4469 4.96864 27.584C4.93291 27.7021 4.80977 27.7703 4.6926 27.7342L4.12266 27.566C3.88832 27.4979 3.75328 27.2518 3.8208 27.0155L4.5814 24.3026C4.77006 23.628 5.44129 23.2135 6.12444 23.3516L6.84333 23.4958C6.96844 23.5217 7.09156 23.4437 7.12332 23.3176L7.44799 22.1773C7.48771 22.0192 7.64658 21.9231 7.80346 21.9631C7.96035 22.0012 8.05765 22.1615 8.01992 22.3196Z" fill="#5E616E"/>
<path d="M6.33382 28.5257C6.76223 28.5257 7.10953 28.1755 7.10953 27.7436C7.10953 27.3116 6.76223 26.9616 6.33382 26.9616C5.9054 26.9616 5.55811 27.3116 5.55811 27.7436C5.55811 28.1755 5.9054 28.5257 6.33382 28.5257Z" fill="#5E616E"/>
<path d="M11.6872 17.7662C12.4823 17.7662 13.1269 17.0755 13.1269 16.2235C13.1269 15.3714 12.4823 14.6807 11.6872 14.6807C10.892 14.6807 10.2474 15.3714 10.2474 16.2235C10.2474 17.0755 10.892 17.7662 11.6872 17.7662Z" fill="#5E616E"/>
<path d="M12.3596 21.3038L13.626 23.0054C13.9143 23.3931 14.3242 23.5821 14.6841 23.2423C15.0197 22.9258 15.0498 22.5626 14.7795 22.2028L12.8312 19.7195C12.76 19.624 12.616 19.6449 12.5647 19.7583L12.3269 20.9538C12.2921 21.1118 12.2865 21.2049 12.3596 21.3038Z" fill="#5E616E"/>
<path d="M9.23515 20.4661L8.72364 22.2231C8.67286 22.3977 8.45558 23.1045 7.85767 22.8919C7.16762 22.6462 7.5006 21.9645 7.5006 21.9645L8.15087 19.6559C8.15087 19.6559 8.31317 19.3817 8.57705 19.1914C8.84092 19.0012 10.2598 17.9876 11.0482 18.0088C11.8367 18.0301 12.3085 18.2197 12.3388 19.0646C12.3692 19.9096 11.6043 22.8352 11.6043 22.8352L12.8755 24.4667C12.8755 24.4667 13.2221 24.9104 13.2022 25.3329C13.1896 25.6015 13.1482 26.6961 13.1849 27.6823C13.2027 28.1576 13.0524 28.6955 12.5242 28.6955C12.0137 28.6955 11.7367 28.2928 11.7367 27.7457L11.6001 25.3586L9.97652 23.7968C9.56553 23.4013 9.28647 22.9009 9.3828 22.0851C9.38018 22.1104 9.38542 22.0604 9.3828 22.0851C9.43411 21.6021 9.77076 20.4435 9.87443 20.0953C9.93883 19.8781 9.23515 20.4661 9.23515 20.4661Z" fill="#5E616E"/>
<path d="M9.47766 23.7842L10.2447 24.5668C10.308 24.6359 10.329 24.7375 10.2981 24.8283L9.28552 27.7815C9.10385 28.2679 8.82531 28.4901 8.44835 28.4109C7.88448 28.2527 7.78918 27.7848 7.996 27.1633L9.09023 23.8758C9.14835 23.7018 9.35672 23.6528 9.47766 23.7842Z" fill="#5E616E"/>
<path fill-rule="evenodd" clip-rule="evenodd" d="M18.8181 15.4349V15.1669C18.8181 14.5575 19.3122 14.0634 19.9217 14.0634H27.6791C28.2885 14.0634 28.7826 14.5575 28.7826 15.1669V19.6465C28.7826 20.2559 28.2885 20.75 27.6791 20.75H19.9217C19.3122 20.75 18.8181 20.2559 18.8181 19.6465V19.444C18.8176 19.4261 18.8173 19.408 18.8173 19.3899V15.489C18.8173 15.4709 18.8176 15.4529 18.8181 15.4349ZM20.4734 19.0947V15.7187H27.1273V19.0947H20.4734Z" fill="#5E616E"/>
<path d="M24.5663 22.8136C24.5663 23.2463 24.2159 23.5971 23.7834 23.5971C23.351 23.5971 23.0004 23.2463 23.0004 22.8136C23.0004 22.3809 23.351 22.0301 23.7834 22.0301C24.2159 22.0301 24.5663 22.3809 24.5663 22.8136Z" fill="#5E616E"/>
<path fill-rule="evenodd" clip-rule="evenodd" d="M16.0587 14.1289C16.0587 12.3005 17.5407 10.8184 19.369 10.8184H28.1965C30.0247 10.8184 31.5068 12.3005 31.5068 14.1289V23.0428C31.5068 24.8713 30.0247 26.3534 28.1965 26.3534H19.369C17.5407 26.3534 16.0587 24.8713 16.0587 23.0428V14.1289ZM19.369 12.4736H28.1965C29.1106 12.4736 29.8517 13.2147 29.8517 14.1289V23.0428C29.8517 23.9571 29.1106 24.6981 28.1965 24.6981H19.369C18.4549 24.6981 17.7139 23.9571 17.7139 23.0428V14.1289C17.7139 13.2147 18.4549 12.4736 19.369 12.4736Z" fill="#5E616E"/>
<path d="M19.1053 27.3464C19.4446 27.6505 19.4753 28.1748 19.1739 28.5173L17.6286 30.4031C17.3272 30.7455 16.8076 30.7766 16.4683 30.4724C16.129 30.1682 16.0983 29.6439 16.3998 29.3015L17.945 27.4156C18.2465 27.0732 18.7659 27.0421 19.1053 27.3464Z" fill="#5E616E"/>
<path d="M29.6444 27.3464C29.343 27.0038 28.8236 26.9729 28.4843 27.2771C28.1448 27.5813 28.1142 28.1056 28.4156 28.448L29.9371 30.4031C30.2384 30.7455 30.758 30.7765 31.0973 30.4724C31.4367 30.1681 31.4673 29.6439 31.166 29.3015L29.6444 27.3464Z" fill="#5E616E"/>
<path d="M19.7966 28.8787C19.7966 28.4206 20.1646 28.0493 20.6185 28.0493H26.9484C27.4023 28.0493 27.7703 28.4206 27.7703 28.8787C27.7703 29.3367 27.4023 29.7081 26.9484 29.7081H20.6185C20.1646 29.7081 19.7966 29.3367 19.7966 28.8787Z" fill="#5E616E"/>
</svg>
