<svg width="36" height="41" viewBox="0 0 36 41" fill="none" xmlns="http://www.w3.org/2000/svg">
<path d="M11.3767 22.3196L12.3607 26.3307C12.3865 26.4449 12.4937 26.517 12.6089 26.503C13.0458 26.4469 14.0785 26.4469 14.428 27.584C14.4637 27.7021 14.5869 27.7703 14.704 27.7342L15.2739 27.566C15.5083 27.4979 15.6434 27.2518 15.5758 27.0155L14.8153 24.3026C14.6266 23.628 13.9553 23.2135 13.2722 23.3516L12.5533 23.4958C12.4282 23.5217 12.3051 23.4437 12.2733 23.3176L11.9486 22.1773C11.9089 22.0192 11.7501 21.9231 11.5932 21.9631C11.4363 22.0012 11.339 22.1615 11.3767 22.3196Z" fill="#5E616E"/>
<path d="M13.0626 28.5257C12.6342 28.5257 12.2869 28.1755 12.2869 27.7436C12.2869 27.3116 12.6342 26.9616 13.0626 26.9616C13.491 26.9616 13.8383 27.3116 13.8383 27.7436C13.8383 28.1755 13.491 28.5257 13.0626 28.5257Z" fill="#5E616E"/>
<path d="M7.7089 17.7662C6.91373 17.7662 6.26912 17.0755 6.26912 16.2235C6.26912 15.3714 6.91373 14.6807 7.7089 14.6807C8.50408 14.6807 9.14869 15.3714 9.14869 16.2235C9.14869 17.0755 8.50408 17.7662 7.7089 17.7662Z" fill="#5E616E"/>
<path d="M7.03648 21.3038L5.77006 23.0054C5.48179 23.3931 5.07187 23.5821 4.71199 23.2423C4.37626 22.9258 4.34627 22.5626 4.61666 22.2028L6.56481 19.7195C6.63608 19.624 6.78004 19.6449 6.83134 19.7583L7.0692 20.9538C7.10399 21.1118 7.10953 21.2049 7.03648 21.3038Z" fill="#5E616E"/>
<path d="M10.1612 20.4661L10.6727 22.2231C10.7235 22.3977 10.9408 23.1045 11.5387 22.8919C12.2287 22.6462 11.8957 21.9645 11.8957 21.9645L11.2455 19.6559C11.2455 19.6559 11.0832 19.3817 10.8193 19.1914C10.5554 19.0012 9.13657 17.9876 8.3481 18.0088C7.55961 18.0301 7.08788 18.2197 7.05751 19.0646C7.02716 19.9096 7.79207 22.8352 7.79207 22.8352L6.52087 24.4667C6.52087 24.4667 6.17428 24.9104 6.19417 25.3329C6.20673 25.6015 6.24809 26.6961 6.21146 27.6823C6.19365 28.1576 6.34391 28.6955 6.87218 28.6955C7.38265 28.6955 7.65961 28.2928 7.65961 27.7457L7.79627 25.3586L9.41982 23.7968C9.83081 23.4013 10.1099 22.9009 10.0135 22.0851C10.0109 22.0604 10.0162 22.1104 10.0135 22.0851C9.96223 21.6021 9.62557 20.4435 9.52192 20.0953C9.45751 19.8781 10.1612 20.4661 10.1612 20.4661Z" fill="#5E616E"/>
<path d="M9.91835 23.7842L9.15134 24.5668C9.08798 24.6359 9.06704 24.7375 9.09793 24.8283L10.1105 27.7815C10.2922 28.2679 10.5707 28.4901 10.9477 28.4109C11.5115 28.2527 11.6068 27.7848 11.4 27.1633L10.3058 23.8758C10.2477 23.7018 10.0393 23.6528 9.91835 23.7842Z" fill="#5E616E"/>
<path fill-rule="evenodd" clip-rule="evenodd" d="M18.8182 15.4349V15.1669C18.8182 14.5575 19.3123 14.0634 19.9217 14.0634H27.6791C28.2885 14.0634 28.7826 14.5575 28.7826 15.1669V19.6465C28.7826 20.2559 28.2885 20.75 27.6791 20.75H19.9217C19.3123 20.75 18.8182 20.2559 18.8182 19.6465V19.444C18.8176 19.4261 18.8173 19.408 18.8173 19.3899V15.489C18.8173 15.4709 18.8176 15.4529 18.8182 15.4349ZM20.4734 19.0947V15.7187H27.1274V19.0947H20.4734Z" fill="#5E616E"/>
<path d="M24.5663 22.8136C24.5663 23.2463 24.2158 23.5971 23.7834 23.5971C23.351 23.5971 23.0004 23.2463 23.0004 22.8136C23.0004 22.3809 23.351 22.0301 23.7834 22.0301C24.2158 22.0301 24.5663 22.3809 24.5663 22.8136Z" fill="#5E616E"/>
<path fill-rule="evenodd" clip-rule="evenodd" d="M16.0587 14.1289C16.0587 12.3005 17.5407 10.8184 19.369 10.8184H28.1965C30.0247 10.8184 31.5068 12.3005 31.5068 14.1289V23.0428C31.5068 24.8713 30.0247 26.3534 28.1965 26.3534H19.369C17.5407 26.3534 16.0587 24.8713 16.0587 23.0428V14.1289ZM19.369 12.4736H28.1965C29.1106 12.4736 29.8517 13.2147 29.8517 14.1289V23.0428C29.8517 23.9571 29.1106 24.6981 28.1965 24.6981H19.369C18.4549 24.6981 17.7139 23.9571 17.7139 23.0428V14.1289C17.7139 13.2147 18.4549 12.4736 19.369 12.4736Z" fill="#5E616E"/>
<path d="M19.1053 27.3464C19.4446 27.6505 19.4753 28.1748 19.1738 28.5173L17.6286 30.4031C17.3271 30.7455 16.8076 30.7766 16.4683 30.4724C16.129 30.1682 16.0983 29.6439 16.3997 29.3015L17.945 27.4156C18.2464 27.0732 18.7658 27.0421 19.1053 27.3464Z" fill="#5E616E"/>
<path d="M29.6445 27.3464C29.343 27.0038 28.8236 26.9729 28.4843 27.2771C28.1449 27.5813 28.1142 28.1056 28.4156 28.448L29.9371 30.4031C30.2384 30.7455 30.758 30.7765 31.0973 30.4724C31.4367 30.1681 31.4673 29.6439 31.166 29.3015L29.6445 27.3464Z" fill="#5E616E"/>
<path d="M19.7966 28.8787C19.7966 28.4206 20.1645 28.0493 20.6185 28.0493H26.9484C27.4023 28.0493 27.7703 28.4206 27.7703 28.8787C27.7703 29.3367 27.4023 29.7081 26.9484 29.7081H20.6185C20.1645 29.7081 19.7966 29.3367 19.7966 28.8787Z" fill="#5E616E"/>
</svg>
