<svg width="40" height="40" viewBox="0 0 40 40" fill="none" xmlns="http://www.w3.org/2000/svg">
<path d="M13.0967 22.0624C14.2367 22.0624 15.159 21.1394 15.159 20C15.159 18.8605 14.2367 17.9375 13.0967 17.9375C11.9567 17.9375 11.0345 18.8605 11.0345 20C11.0345 21.1394 11.9567 22.0624 13.0967 22.0624Z" fill="#FC790D"/>
<path d="M17.6147 18.1279C17.2695 18.1279 16.9897 18.4078 16.9897 18.7529C16.9897 19.0981 17.2695 19.3779 17.6147 19.3779H28.5293C28.8745 19.3779 29.1543 19.0981 29.1543 18.7529C29.1543 18.4078 28.8745 18.1279 28.5293 18.1279H17.6147Z" fill="#0770E4"/>
<path d="M17.6147 20.8724C17.2695 20.8724 16.9897 21.1522 16.9897 21.4974C16.9897 21.8426 17.2695 22.1224 17.6147 22.1224H25.4484C25.7935 22.1224 26.0734 21.8426 26.0734 21.4974C26.0734 21.1522 25.7935 20.8724 25.4484 20.8724H17.6147Z" fill="#0770E4"/>
<path fill-rule="evenodd" clip-rule="evenodd" d="M9 10.5C6.79086 10.5 5 12.2909 5 14.5V16.0519C5 16.6042 5.45929 17.0359 5.98309 17.211C7.18635 17.6132 8.05203 18.7332 8.05203 20.0519C8.05203 21.3707 7.18635 22.4907 5.98309 22.8929C5.45929 23.068 5 23.4997 5 24.0519V25.5C5 27.7091 6.79086 29.5 9 29.5H31C33.2091 29.5 35 27.7091 35 25.5V24.0519C35 23.4997 34.5407 23.068 34.0169 22.8929C32.8136 22.4907 31.948 21.3707 31.948 20.0519C31.948 18.7332 32.8137 17.6131 34.0169 17.211C34.5407 17.0359 35 16.6042 35 16.0519V14.5C35 12.2909 33.2091 10.5 31 10.5H9ZM33.75 25.5C33.75 27.0188 32.5188 28.25 31 28.25H9C7.48122 28.25 6.25 27.0188 6.25 25.5V24.145C6.25732 24.1395 6.26595 24.1334 6.27601 24.1271C6.30595 24.1081 6.34154 24.0911 6.37934 24.0784C8.06594 23.5147 9.30203 21.9359 9.30203 20.0519C9.30203 18.168 8.06594 16.5892 6.37934 16.0254C6.34154 16.0128 6.30595 15.9957 6.27601 15.9768C6.26595 15.9705 6.25732 15.9644 6.25 15.9589V14.5C6.25 12.9812 7.48122 11.75 9 11.75H31C32.5188 11.75 33.75 12.9812 33.75 14.5V15.9589C33.7427 15.9644 33.734 15.9705 33.724 15.9768C33.6941 15.9957 33.6585 16.0128 33.6207 16.0254C31.9341 16.5892 30.698 18.168 30.698 20.0519C30.698 21.9359 31.9341 23.5147 33.6207 24.0784C33.6585 24.0911 33.694 24.1081 33.724 24.1271C33.734 24.1334 33.7427 24.1395 33.75 24.145V25.5Z" fill="#0770E4"/>
</svg>
