<svg width="40" height="40" viewBox="0 0 40 40" fill="none" xmlns="http://www.w3.org/2000/svg">
<path fill-rule="evenodd" clip-rule="evenodd" d="M11.4713 9.60416C11.3893 8.10044 12.5865 6.83618 14.0925 6.83618H14.822C16.161 6.83618 17.2854 7.84398 17.4315 9.175L18.9314 22.8453C18.9522 23.0354 19.1128 23.1793 19.304 23.1793H29.1341C29.1391 23.1793 29.1441 23.1794 29.1491 23.1795C30.0225 23.2004 30.7005 23.8188 31.1246 24.4394C31.5596 25.0762 31.8476 25.8818 31.8654 26.579C31.8656 26.5843 31.8656 26.5897 31.8656 26.595C31.8656 27.3207 31.5721 28.1579 31.1239 28.8139C30.6865 29.4541 29.9822 30.0864 29.0801 30.0864H15.0735C13.6792 30.0864 12.5282 28.9964 12.4523 27.6042L11.4713 9.60416ZM14.0925 8.08642C13.3038 8.08642 12.6767 8.74856 12.7196 9.53612L13.7007 27.5361C13.7404 28.2653 14.3432 28.8362 15.0735 28.8362H29.0801C29.3712 28.8362 29.7471 28.6128 30.0916 28.1086C30.4233 27.6232 30.613 27.0316 30.6154 26.603C30.6025 26.1864 30.4134 25.6148 30.0923 25.1448C29.7605 24.6592 29.4023 24.4393 29.1253 24.4296H19.304C18.4751 24.4296 17.779 23.8057 17.6886 22.9817L16.1887 9.31135C16.1122 8.61424 15.5233 8.08642 14.822 8.08642H14.0925Z" fill="#0770E4"/>
<path d="M20.2742 20.697C19.9289 20.697 19.649 20.9769 19.649 21.3221C19.649 21.6674 19.9289 21.9473 20.2742 21.9473H26.2742C26.6194 21.9473 26.8993 21.6674 26.8993 21.3221C26.8993 20.9769 26.6194 20.697 26.2742 20.697H20.2742Z" fill="#FC790D"/>
<path d="M16.0612 32.0057C15.7159 32.0057 15.436 32.2856 15.436 32.6309C15.436 32.9761 15.7159 33.256 16.0612 33.256H28.0612C28.4064 33.256 28.6863 32.9761 28.6863 32.6309C28.6863 32.2856 28.4064 32.0057 28.0612 32.0057H16.0612Z" fill="#FC790D"/>
</svg>
