<svg width="40" height="40" viewBox="0 0 40 40" fill="none" xmlns="http://www.w3.org/2000/svg">
<path fill-rule="evenodd" clip-rule="evenodd" d="M16.4411 6.60217C11.4498 6.60217 7.4035 10.6484 7.4035 15.6398C7.4035 20.6311 11.4498 24.6773 16.4411 24.6773C18.0597 24.6773 19.5788 24.2518 20.8929 23.5066L27.9278 30.5289C28.7573 31.3569 30.1008 31.3561 30.9293 30.5272C31.7583 29.6978 31.7579 28.3535 30.9285 27.5246L25.5028 22.1022C25.2586 21.8582 24.8629 21.8583 24.6189 22.1024C24.3749 22.3466 24.375 22.7423 24.6192 22.9863L30.0449 28.4088C30.3859 28.7496 30.3861 29.3025 30.0452 29.6435C29.7045 29.9844 29.152 29.9847 28.8109 29.6442L21.9552 22.8008C24.0982 21.1482 25.4787 18.5552 25.4787 15.6398C25.4787 10.6484 21.4324 6.60217 16.4411 6.60217ZM8.6535 15.6398C8.6535 11.3388 12.1401 7.85217 16.4411 7.85217C20.742 7.85217 24.2287 11.3388 24.2287 15.6398C24.2287 19.9407 20.742 23.4273 16.4411 23.4273C12.1401 23.4273 8.6535 19.9407 8.6535 15.6398Z" fill="#0770E4"/>
<path d="M28.7406 21.5776C29.8974 21.5776 30.8361 20.639 30.8361 19.4775C30.8361 18.316 29.8974 17.3774 28.7406 17.3774C27.5839 17.3774 26.6452 18.316 26.6452 19.4775C26.6452 20.639 27.5839 21.5776 28.7406 21.5776Z" fill="#FC790D"/>
</svg>
