<svg width="41" height="40" viewBox="0 0 41 40" fill="none" xmlns="http://www.w3.org/2000/svg">
<path d="M14.6835 18.5445C14.6834 18.5446 14.6835 18.5443 14.6835 18.5445L14.6852 18.5388C14.6871 18.5327 14.6904 18.5221 14.6952 18.5075C14.7047 18.4781 14.7201 18.4324 14.742 18.3726C14.7858 18.2529 14.855 18.0775 14.9539 17.8651C15.1522 17.4389 15.4661 16.8718 15.9264 16.3071C16.8391 15.1875 18.3199 14.0802 20.6669 14.0802C23.0153 14.0802 24.5187 15.1888 25.4535 16.312C25.9245 16.8779 26.2486 17.4461 26.4546 17.873C26.5573 18.0857 26.6296 18.2614 26.6755 18.3814C26.6985 18.4413 26.7147 18.4871 26.7248 18.5166C26.7298 18.5313 26.7333 18.5419 26.7353 18.548L26.7369 18.553L26.7373 18.5541C26.8393 18.8832 27.1886 19.0679 27.518 18.9665C27.8479 18.865 28.0331 18.5153 27.9316 18.1854L27.3512 18.364C27.9316 18.1854 27.9317 18.1857 27.9316 18.1854L27.9311 18.184L27.9306 18.1822L27.929 18.1773L27.9242 18.1621C27.9201 18.1497 27.9145 18.1327 27.9072 18.1114C27.8926 18.0689 27.8714 18.0091 27.8429 17.9347C27.786 17.7859 27.6999 17.5777 27.5803 17.3298C27.3417 16.8353 26.9656 16.175 26.4142 15.5124C25.3042 14.1787 23.4739 12.8303 20.6669 12.8303C17.8586 12.8303 16.0477 14.18 14.9576 15.5174C14.4165 16.1812 14.0512 16.8425 13.8207 17.3377C13.7051 17.5859 13.6225 17.7945 13.5681 17.9435C13.5408 18.018 13.5205 18.0779 13.5067 18.1205C13.4997 18.1419 13.4944 18.1589 13.4905 18.1714L13.4859 18.1866L13.4844 18.1916L13.4839 18.1934C13.4838 18.1937 13.4835 18.1948 14.0836 18.3692L13.4835 18.1948C13.3872 18.5262 13.5778 18.873 13.9092 18.9693C14.2404 19.0655 14.5868 18.8754 14.6835 18.5445Z" fill="#FC790D"/>
<path fill-rule="evenodd" clip-rule="evenodd" d="M14.6804 22.1525L14.6822 22.158C14.6842 22.1642 14.6877 22.1748 14.6928 22.1895C14.7029 22.2189 14.7193 22.2648 14.7424 22.3248C14.7429 22.3261 14.7434 22.3274 14.7439 22.3288L14.0836 22.338C13.4867 22.5229 13.4867 22.5232 13.4868 22.5235L13.4876 22.5261L13.4892 22.531L13.4941 22.5461C13.4981 22.5586 13.5038 22.5756 13.5111 22.5968C13.5258 22.6394 13.5472 22.699 13.5758 22.7735C13.633 22.9221 13.7194 23.1303 13.8394 23.3782C14.0789 23.8725 14.4558 24.5326 15.0078 25.195C16.1188 26.5282 17.9489 27.8768 20.7509 27.8768C23.5543 27.8768 25.365 26.5268 26.4561 25.1901C26.9977 24.5265 27.364 23.8653 27.5953 23.3703C27.7113 23.1221 27.7942 22.9136 27.849 22.7647C27.8764 22.6902 27.8968 22.6304 27.9107 22.5877C27.9177 22.5664 27.9231 22.5494 27.9269 22.5369L27.9316 22.5217L27.9331 22.5167L27.9336 22.5149C27.9337 22.5145 27.934 22.5135 27.3342 22.338L27.934 22.5135C28.031 22.1823 27.8411 21.8352 27.5098 21.7382C27.1787 21.6413 26.8318 21.8309 26.7346 22.1619C26.7345 22.1621 26.7345 22.1624 27.312 22.3314L26.7346 22.1619L14.6804 22.1525ZM26.7346 22.1619L14.7439 22.3288C14.7902 22.4487 14.8624 22.6229 14.9643 22.8334C15.1711 23.2604 15.4963 23.8288 15.968 24.3948C16.9045 25.5186 18.4081 26.6269 20.7509 26.6269C23.0924 26.6269 24.5734 25.52 25.4878 24.3997C25.9488 23.8349 26.2637 23.2676 26.4629 22.8412C26.5622 22.6287 26.6318 22.4533 26.6758 22.3335C26.6978 22.2737 26.7133 22.2279 26.7229 22.1986C26.7277 22.1839 26.7311 22.1734 26.733 22.1672L26.7346 22.1619Z" fill="#FC790D"/>
<path fill-rule="evenodd" clip-rule="evenodd" d="M13.2163 17.7441C12.3355 17.7441 11.6214 18.4582 11.6214 19.339V21.1896C11.6214 22.0704 12.3355 22.7844 13.2163 22.7844H28.1075C28.9883 22.7844 29.7024 22.0704 29.7024 21.1896V19.339C29.7024 18.4582 28.9883 17.7441 28.1075 17.7441H13.2163ZM12.8713 19.339C12.8713 19.1485 13.0258 18.994 13.2163 18.994H28.1075C28.298 18.994 28.4524 19.1485 28.4524 19.339V21.1896C28.4524 21.3801 28.298 21.5345 28.1075 21.5345H13.2163C13.0258 21.5345 12.8713 21.3801 12.8713 21.1896V19.339Z" fill="#0770E4"/>
<path fill-rule="evenodd" clip-rule="evenodd" d="M22.7418 6.69137C21.5957 5.54526 19.7375 5.54526 18.5914 6.69136L7.35811 17.9248C6.21201 19.0709 6.21201 20.9291 7.35811 22.0752L18.5914 33.3086C19.7375 34.4547 21.5957 34.4547 22.7418 33.3086L33.9751 22.0752C35.1212 20.9291 35.1212 19.0709 33.9751 17.9248L22.7418 6.69137ZM19.4752 7.57518C20.1332 6.9172 21.2 6.9172 21.858 7.57519L33.0913 18.8086C33.7493 19.4666 33.7493 20.5334 33.0913 21.1914L21.858 32.4248C21.2 33.0828 20.1332 33.0828 19.4752 32.4248L8.24192 21.1914C7.58394 20.5334 7.58394 19.4666 8.24192 18.8086L19.4752 7.57518Z" fill="#0770E4"/>
</svg>
