<svg width="24" height="24" viewBox="0 0 24 24" fill="none" xmlns="http://www.w3.org/2000/svg">
<path fill-rule="evenodd" clip-rule="evenodd" d="M12 6.47809C8.715 6.47809 6.052 9.12965 6.052 12.4005C6.052 15.6714 8.715 18.3229 12 18.3229H15.0599C16.6549 18.3229 17.9479 17.0355 17.9479 15.4473V12.4005C17.9479 9.12965 15.2849 6.47809 12 6.47809ZM8.92495 13.1871C9.36131 13.1871 9.71506 12.8349 9.71506 12.4004C9.71506 11.9659 9.36131 11.6137 8.92495 11.6137C8.48858 11.6137 8.13484 11.9659 8.13484 12.4004C8.13484 12.8349 8.48858 13.1871 8.92495 13.1871ZM12.7903 12.4004C12.7903 12.8349 12.4365 13.1871 12.0002 13.1871C11.5638 13.1871 11.2101 12.8349 11.2101 12.4004C11.2101 11.9659 11.5638 11.6137 12.0002 11.6137C12.4365 11.6137 12.7903 11.9659 12.7903 12.4004ZM15.0752 13.1871C15.5116 13.1871 15.8653 12.8349 15.8653 12.4004C15.8653 11.9659 15.5116 11.6137 15.0752 11.6137C14.6389 11.6137 14.2851 11.9659 14.2851 12.4004C14.2851 12.8349 14.6389 13.1871 15.0752 13.1871Z" fill="#5E616E"/>
<path d="M4.41884 10.2306C5.35174 6.92332 8.39265 4.49926 12 4.49926C15.6074 4.49926 18.6483 6.92332 19.5812 10.2306C19.1243 10.5645 18.8276 11.1042 18.8276 11.7132V14.9707C18.8276 15.9843 19.6497 16.806 20.6638 16.806C21.6779 16.806 22.5 15.9843 22.5 14.9707V11.7132C22.5 10.8325 21.8795 10.0968 21.0516 9.91886C19.9731 5.93269 16.3292 3 12 3C7.67081 3 4.02692 5.93269 2.94846 9.91886C2.12056 10.0967 1.5 10.8325 1.5 11.7132V14.9707C1.5 15.9843 2.3221 16.806 3.33622 16.806C3.63776 16.806 3.92232 16.7333 4.17334 16.6046C5.23398 18.3626 7.03514 21.1735 9.7579 21.4048C9.9249 21.7461 10.2732 21.9829 10.6785 21.9876L11.7167 21.9999C12.2901 22.0067 12.7604 21.5466 12.7672 20.9723C12.7739 20.398 12.3146 19.9269 11.7412 19.9201L10.703 19.9078C10.3398 19.9035 10.0179 20.0866 9.82905 20.3674C7.37363 20.1569 5.78612 17.6367 4.87284 15.9758C5.06227 15.6871 5.17244 15.3417 5.17244 14.9707V11.7132C5.17244 11.1042 4.87569 10.5645 4.41884 10.2306Z" fill="#5E616E"/>
</svg>
