<svg width="60" height="60" viewBox="0 0 60 60" fill="none" xmlns="http://www.w3.org/2000/svg">
<path fill-rule="evenodd" clip-rule="evenodd" d="M19.002 19.6665V19.1454C19.002 17.9606 20.1424 17 21.549 17H39.4531C40.8597 17 42 17.9606 42 19.1454V27.8546C42 29.0394 40.8597 30 39.4531 30H21.549C20.1424 30 19.002 29.0394 19.002 27.8546V27.4609C19.0007 27.426 19 27.3909 19 27.3557V19.7716C19 19.7364 19.0007 19.7014 19.002 19.6665ZM22.8224 26.7818V20.2182H38.1796V26.7818H22.8224Z" fill="#5E616E"/>
<path d="M32 34.5C32 35.3285 31.3286 36 30.5001 36C29.6717 36 29 35.3285 29 34.5C29 33.6715 29.6717 33 30.5001 33C31.3286 33 32 33.6715 32 34.5Z" fill="#5E616E"/>
<path fill-rule="evenodd" clip-rule="evenodd" d="M12 16.8193C12 13.0531 15.5495 10 19.9286 10H41.0714C45.4501 10 49 13.0531 49 16.8193V35.1807C49 38.9471 45.4501 42 41.0714 42H19.9286C15.5495 42 12 38.9471 12 35.1807V16.8193ZM19.9286 13.4096H41.0714C43.2608 13.4096 45.0357 14.9362 45.0357 16.8193V35.1807C45.0357 37.0641 43.2608 38.5904 41.0714 38.5904H19.9286C17.7392 38.5904 15.9643 37.0641 15.9643 35.1807V16.8193C15.9643 14.9362 17.7392 13.4096 19.9286 13.4096Z" fill="#5E616E"/>
<path d="M19.3076 44.4135C20.1587 45.0141 20.2359 46.0493 19.4796 46.7258L15.6032 50.4499C14.8469 51.1261 13.5436 51.1874 12.6924 50.5868C11.8413 49.9859 11.7641 48.9506 12.5204 48.2745L16.3968 44.55C17.1531 43.8739 18.456 43.8126 19.3076 44.4135Z" fill="#5E616E"/>
<path d="M44.6302 44.5396C43.8682 43.8762 42.5554 43.8163 41.6978 44.4054C40.8399 44.9948 40.7625 46.0102 41.5241 46.6734L45.3698 50.4605C46.1315 51.1236 47.4446 51.1838 48.3022 50.5947C49.1601 50.0053 49.2375 48.9899 48.4759 48.3267L44.6302 44.5396Z" fill="#5E616E"/>
<path d="M21 47.5C21 46.6716 21.8768 46 22.9584 46H38.0415C39.1231 46 40 46.6716 40 47.5C40 48.3284 39.1231 49 38.0415 49H22.9584C21.8768 49 21 48.3284 21 47.5Z" fill="#5E616E"/>
</svg>
